<?xml version="1.0" encoding="UTF-8" standalone="no"?>
<!DOCTYPE svg PUBLIC "-//W3C//DTD SVG 1.1//EN"
 "http://www.w3.org/Graphics/SVG/1.1/DTD/svg11.dtd">
<!-- Generated by graphviz version 12.1.1 (20240910.0053)
 -->
<!-- Title: INFRA Pages: 1 -->
<svg width="708pt" height="188pt"
 viewBox="0.00 0.00 707.54 188.00" xmlns="http://www.w3.org/2000/svg" xmlns:xlink="http://www.w3.org/1999/xlink">
<g id="graph0" class="graph" transform="scale(1 1) rotate(0) translate(4 184)">
<title>INFRA</title>
<polygon fill="white" stroke="none" points="-4,4 -4,-184 703.54,-184 703.54,4 -4,4"/>
<!-- Vercel Rewrite Rules -->
<g id="node1" class="node">
<title>Vercel Rewrite Rules</title>
<path fill="#e78f81" stroke="black" stroke-width="2" d="M206.3,-180C206.3,-180 12,-180 12,-180 6,-180 0,-174 0,-168 0,-168 0,-120 0,-120 0,-114 6,-108 12,-108 12,-108 206.3,-108 206.3,-108 212.3,-108 218.3,-114 218.3,-120 218.3,-120 218.3,-168 218.3,-168 218.3,-174 212.3,-180 206.3,-180"/>
<text text-anchor="middle" x="109.15" y="-148.2" font-family="Arial" font-size="14.00">Vercel Rewrite Rules</text>
<text text-anchor="middle" x="109.15" y="-131.4" font-family="Arial" font-size="14.00">(Vercel::Configuration::Rewrites)</text>
</g>
<!-- AWS Cognito User Pool -->
<g id="node2" class="node">
<title>AWS Cognito User Pool</title>
<path fill="#e6e6e6" stroke="black" stroke-width="2" d="M540.45,-72C540.45,-72 385.84,-72 385.84,-72 379.84,-72 373.84,-66 373.84,-60 373.84,-60 373.84,-12 373.84,-12 373.84,-6 379.84,0 385.84,0 385.84,0 540.45,0 540.45,0 546.45,0 552.45,-6 552.45,-12 552.45,-12 552.45,-60 552.45,-60 552.45,-66 546.45,-72 540.45,-72"/>
<text text-anchor="middle" x="463.15" y="-40.2" font-family="Arial" font-size="14.00">AWS Cognito User Pool</text>
<text text-anchor="middle" x="463.15" y="-23.4" font-family="Arial" font-size="14.00">(AWS::Cognito::UserPool)</text>
</g>
<!-- AWS Cognito User Pool Client -->
<g id="node3" class="node">
<title>AWS Cognito User Pool Client</title>
<path fill="#e6e6e6" stroke="black" stroke-width="2" d="M438.35,-180C438.35,-180 247.95,-180 247.95,-180 241.95,-180 235.95,-174 235.95,-168 235.95,-168 235.95,-120 235.95,-120 235.95,-114 241.95,-108 247.95,-108 247.95,-108 438.35,-108 438.35,-108 444.35,-108 450.35,-114 450.35,-120 450.35,-120 450.35,-168 450.35,-168 450.35,-174 444.35,-180 438.35,-180"/>
<text text-anchor="middle" x="343.15" y="-148.2" font-family="Arial" font-size="14.00">AWS Cognito User Pool Client</text>
<text text-anchor="middle" x="343.15" y="-131.4" font-family="Arial" font-size="14.00">(AWS::Cognito::UserPoolClient)</text>
</g>
<!-- AWS Cognito User Pool Client&#45;&gt;AWS Cognito User Pool -->
<g id="edge1" class="edge">
<title>AWS Cognito User Pool Client&#45;&gt;AWS Cognito User Pool</title>
<path fill="none" stroke="black" d="M383.11,-107.7C393.33,-98.67 404.43,-88.87 415.01,-79.52"/>
<polygon fill="black" stroke="black" points="417.05,-82.39 422.23,-73.14 412.42,-77.14 417.05,-82.39"/>
</g>
<!-- AWS Cognito OAuth Configuration -->
<g id="node4" class="node">
<title>AWS Cognito OAuth Configuration</title>
<path fill="#e6e6e6" stroke="black" stroke-width="2" d="M687.54,-180C687.54,-180 480.76,-180 480.76,-180 474.76,-180 468.76,-174 468.76,-168 468.76,-168 468.76,-120 468.76,-120 468.76,-114 474.76,-108 480.76,-108 480.76,-108 687.54,-108 687.54,-108 693.54,-108 699.54,-114 699.54,-120 699.54,-120 699.54,-168 699.54,-168 699.54,-174 693.54,-180 687.54,-180"/>
<text text-anchor="middle" x="584.15" y="-148.2" font-family="Arial" font-size="14.00">AWS Cognito OAuth Configuration</text>
<text text-anchor="middle" x="584.15" y="-131.4" font-family="Arial" font-size="14.00">(AWS::Cognito::UserPoolDomain)</text>
</g>
<!-- AWS Cognito OAuth Configuration&#45;&gt;AWS Cognito User Pool -->
<g id="edge2" class="edge">
<title>AWS Cognito OAuth Configuration&#45;&gt;AWS Cognito User Pool</title>
<path fill="none" stroke="black" d="M543.86,-107.7C533.55,-98.67 522.36,-88.87 511.69,-79.52"/>
<polygon fill="black" stroke="black" points="514.23,-77.1 504.4,-73.14 509.62,-82.36 514.23,-77.1"/>
</g>
</g>
</svg>
